#!OML:ASF I:\golf\golf\golf 2\Subject 1\2002-09-07\Subject1.ASF
:FULLY-SPECIFIED
:DEGREES
290
root 0.614581 15.5653 -3.88411 57.0624 18.0173 5.53174
lowerback 30.8075 6.19302 7.85588
upperback 16.0313 9.89463 9.50045
thorax 1.13139 4.79052 3.30188
lowerneck -15.0173 -10.7117 -3.95125
upperneck 5.90276 -13.2696 -4.56091
head 4.0891 -6.94333 -1.82013
rclavicle 1.08139e-013 6.04305e-014
rhumerus 59.7239 -18.9564 -61.7417
rradius 25.4346
rwrist -2.62609
rhand -50.2106 34.0805
rfingers 7.12502
rthumb -22.7912 5.40687
lclavicle 1.08139e-013 6.04305e-014
lhumerus -22.5683 -56.3629 86.5168
lradius 88.148
lwrist -26.373
lhand -55.2758 35.2835
lfingers 7.12502
lthumb -27.6439 63.2725
rfemur -103.584 -22.3972 37.7437
rtibia 70.9975
rfoot -18.7924 -8.81718
rtoes -10.315
lfemur -101.81 -1.79937 -30.6096
ltibia 57.2328
lfoot -4.97044 -23.1196
ltoes 8.62964
291
root 0.628413 15.5719 -3.85772 57.1863 17.9633 5.60101
lowerback 30.9141 6.23621 7.71385
upperback 15.9878 9.92978 9.51011
thorax 1.00404 4.79522 3.36111
lowerneck -15.0187 -10.7336 -3.94054
upperneck 5.92786 -13.2949 -4.62344
head 4.09195 -6.95925 -1.84304
rclavicle -2.54444e-014 -4.77083e-015
rhumerus 59.8605 -19.0299 -61.9489
rradius 25.2112
rwrist -2.42429
rhand -50.3547 34.1923
rfingers 7.12502
rthumb -22.9295 5.53574
lclavicle -2.54444e-014 -4.77083e-015
lhumerus -22.6191 -56.4473 86.5434
lradius 88.3606
lwrist -26.0933
lhand -55.4651 35.5982
lfingers 7.12502
lthumb -27.8249 63.558
rfemur -103.525 -22.4331 37.6242
rtibia 70.9191
rfoot -18.8837 -8.9487
rtoes -11.3382
lfemur -101.795 -1.85629 -30.6951
ltibia 57.2735
lfoot -5.11598 -23.0992
ltoes 8.766
292
root 0.656522 15.5315 -3.85105 58.0871 18.2774 5.79356
lowerback 29.9906 6.07021 8.08549
upperback 15.8247 9.73972 9.48247
thorax 1.29538 4.73789 3.26014
lowerneck -14.8277 -10.7611 -3.96243
upperneck 5.76243 -13.3496 -4.60778
head 4.01268 -6.98256 -1.82138
rclavicle 3.18055e-015 -3.65764e-014
rhumerus 59.978 -19.1435 -62.1468
rradius 25.0723
rwrist -1.96225
rhand -50.7198 34.0648
rfingers 7.12502
rthumb -23.2798 5.45215
lclavicle 3.18055e-015 -3.65764e-014
lhumerus -22.6622 -56.5344 86.5869
lradius 88.5138
lwrist -25.9195
lhand -55.6154 35.0446
lfingers 7.12502
lthumb -27.9686 62.9811
rfemur -104.661 -22.5404 38.1158
rtibia 71.0174
rfoot -18.8524 -9.11524
rtoes -12.5526
lfemur -102.715 -2.43519 -30.4807
ltibia 57.3599
lfoot -4.94353 -22.9999
ltoes 8.86906
293
root 0.661717 15.5506 -3.82639 57.9796 18.1641 5.42297
lowerback 30.2341 6.1965 7.91658
upperback 15.846 9.86901 9.466
thorax 1.1826 4.7839 3.27346
lowerneck -14.6955 -10.6775 -3.73581
upperneck 5.49581 -13.295 -4.73042
head 3.88701 -6.95493 -1.86554
rclavicle -9.85972e-014 7.15625e-014
rhumerus 60.1373 -19.0859 -62.5367
rradius 25.0638
rwrist -1.66845
rhand -51.1171 34.1924
rfingers 7.12502
rthumb -23.6609 5.62847
lclavicle -9.85972e-014 7.15625e-014
lhumerus -22.7794 -56.4226 86.499
lradius 88.6654
lwrist -25.5146
lhand -55.3213 36.14
lfingers 7.12502
lthumb -27.6875 64.122
rfemur -104.309 -22.1935 38.1205
rtibia 70.9241
rfoot -19.0182 -9.42489
rtoes -14.3022
lfemur -102.684 -2.03993 -30.3972
ltibia 57.3859
lfoot -5.13651 -23.015
ltoes 8.61992
294
root 0.678004 15.538 -3.81146 58.4509 18.3316 5.59672
lowerback 29.8243 6.08047 8.0494
upperback 15.8014 9.72196 9.42375
thorax 1.34582 4.72982 3.23315
lowerneck -14.7967 -10.6855 -3.55841
upperneck 5.50976 -13.3239 -4.88186
head 3.88487 -6.97557 -1.94302
rclavicle -1.39944e-013 -1.90833e-014
rhumerus 60.2424 -19.092 -62.8225
rradius 25.1183
rwrist -1.82479
rhand -51.4336 34.5428
rfingers 7.12502
rthumb -23.9644 6.01845
lclavicle -1.39944e-013 -1.90833e-014
lhumerus -22.696 -56.3828 86.4072
lradius 88.7281
lwrist -25.0114
lhand -55.6595 33.3169
lfingers 7.12502
lthumb -28.0108 61.2465
rfemur -104.774 -22.3054 38.2662
rtibia 70.9348
rfoot -19.0846 -9.54862
rtoes -14.7441
lfemur -103.035 -2.37467 -30.3511
ltibia 57.3701
lfoot -5.173 -22.9829
ltoes 8.43915
295
root 0.687184 15.5503 -3.79353 58.5437 18.3803 5.58423
lowerback 29.7535 6.13282 8.08668
upperback 15.8018 9.78927 9.49524
thorax 1.37073 4.761 3.28046
lowerneck -14.6263 -10.7608 -3.59072
upperneck 5.48911 -13.4305 -4.87057
head 3.85343 -7.0256 -1.93186
rclavicle 6.36111e-015 -1.11319e-014
rhumerus 60.1756 -19.2005 -62.7461
rradius 25.1151
rwrist -2.37328
rhand -51.4841 35.06
rfingers 7.12502
rthumb -24.0129 6.54202
lclavicle 6.36111e-015 -1.11319e-014
lhumerus -22.8225 -56.4756 86.6743
lradius 88.6741
lwrist -24.8585
lhand -55.5026 33.2506
lfingers 7.12502
lthumb -27.8608 61.2046
rfemur -104.701 -22.2846 38.2379
rtibia 70.8104
rfoot -19.0677 -9.58805
rtoes -13.9949
lfemur -102.995 -2.40744 -30.2811
ltibia 57.285
lfoot -5.12055 -22.9612
ltoes 8.68919
296
root 0.695753 15.5698 -3.77474 58.5105 18.4045 5.54397
lowerback 29.8871 6.18646 8.07098
upperback 15.8092 9.86728 9.56871
thorax 1.30276 4.79068 3.33528
lowerneck -14.4566 -10.7676 -3.6415
upperneck 5.39956 -13.4533 -4.75047
head 3.81055 -7.02869 -1.87746
rclavicle 0 4.13472e-014
rhumerus 60.2806 -19.3591 -62.9095
rradius 25.0251
rwrist -2.4902
rhand -51.329 35.2098
rfingers 7.12502
rthumb -23.8642 6.67235
lclavicle 0 4.13472e-014
lhumerus -22.7891 -56.5638 86.7373
lradius 88.5299
lwrist -24.8466
lhand -55.9438 32.6953
lfingers 7.12502
lthumb -28.2825 60.5801
rfemur -104.448 -22.2664 38.139
rtibia 70.6626
rfoot -19.0159 -9.6764
rtoes -13.7083
lfemur -102.808 -2.38068 -30.2164
ltibia 57.1727
lfoot -5.11456 -22.9382
ltoes 8.98762
297
root 0.699363 15.5949 -3.75072 58.3364 18.2799 5.44624
lowerback 30.3017 6.24924 7.80854
upperback 15.8863 9.91394 9.53787
thorax 1.16555 4.79396 3.39388
lowerneck -14.806 -10.7095 -3.64671
upperneck 5.50976 -13.3614 -4.60371
head 3.91013 -6.98102 -1.85262
rclavicle -1.27222e-014 -2.70347e-014
rhumerus 60.7077 -19.4102 -63.5554
rradius 24.8773
rwrist -2.1838
rhand -51.2327 35.0462
rfingers 7.12502
rthumb -23.7718 6.49664
lclavicle -1.27222e-014 -2.70347e-014
lhumerus -22.3864 -56.4935 86.2371
lradius 88.595
lwrist -24.4692
lhand -56.2118 32.1404
lfingers 7.12502
lthumb -28.5386 59.9825
rfemur -103.973 -22.1672 37.9048
rtibia 70.4791
rfoot -19.0395 -9.79802
rtoes -13.9567
lfemur -102.484 -2.17337 -30.3107
ltibia 57.0649
lfoot -5.21717 -22.9656
ltoes 9.01673
298
root 0.703313 15.6205 -3.72522 58.1415 18.1475 5.29173
lowerback 30.7002 6.34067 7.56901
upperback 15.9715 9.99506 9.52434
thorax 1.04686 4.81403 3.45249
lowerneck -15.168 -10.6974 -3.65984
upperneck 5.61893 -13.3236 -4.54136
head 4.00533 -6.96473 -1.85583
rclavicle -6.99722e-014 -3.33958e-014
rhumerus 61.0117 -19.4131 -63.9351
rradius 24.7468
rwrist -2.0373
rhand -51.2264 34.8124
rfingers 7.12502
rthumb -23.7658 6.26206
lclavicle -6.99722e-014 -3.33958e-014
lhumerus -22.1467 -56.3863 85.8774
lradius 88.6754
lwrist -24.5515
lhand -55.6591 31.1756
lfingers 7.12502
lthumb -28.0104 59.1053
rfemur -103.488 -22.0109 37.6855
rtibia 70.3439
rfoot -19.1124 -9.95276
rtoes -13.9973
lfemur -102.173 -1.90152 -30.4004
ltibia 56.9839
lfoot -5.22096 -23.0376
ltoes 8.93945
299
root 0.718622 15.6159 -3.71123 58.4268 18.1861 5.41596
lowerback 30.4912 6.31055 7.61838
upperback 15.9416 9.95292 9.51718
thorax 1.1146 4.79992 3.44765
lowerneck -15.2334 -10.7363 -3.64514
upperneck 5.60239 -13.3786 -4.53476
head 4.00894 -6.99229 -1.86331
rclavicle 1.59028e-014 2.38542e-014
rhumerus 61.0141 -19.4977 -63.9247
rradius 24.7148
rwrist -2.12354
rhand -51.2715 34.5177
rfingers 7.12502
rthumb -23.809 5.97303
lclavicle 1.59028e-014 2.38542e-014
lhumerus -22.082 -56.4476 85.8533
lradius 88.5349
lwrist -24.9332
lhand -54.7659 27.4094
lfingers 7.12502
lthumb -27.1562 55.4755
rfemur -103.671 -22.0578 37.6178
rtibia 70.281
rfoot -19.1293 -10.2037
rtoes -15.4633
lfemur -102.319 -2.10244 -30.4434
ltibia 56.9192
lfoot -5.06788 -23.0266
ltoes 8.83614
300
root 0.743056 15.5741 -3.71223 59.3404 18.4327 5.81373
lowerback 29.5954 6.04957 7.91303
upperback 15.8109 9.6251 9.36351
thorax 1.44491 4.68146 3.28806
lowerneck -15.3788 -10.6812 -3.33579
upperneck 5.49014 -13.3575 -4.66358
head 3.96776 -6.98505 -1.94606
rclavicle -6.04305e-014 -3.18055e-014
rhumerus 61.1282 -19.4863 -64.1872
rradius 24.6885
rwrist -2.23172
rhand -51.3704 34.4463
rfingers 7.12502
rthumb -23.9038 5.91398
lclavicle -6.04305e-014 -3.18055e-014
lhumerus -21.9308 -56.4282 85.6452
lradius 88.4367
lwrist -24.8766
lhand -54.2363 26.3938
lfingers 7.12502
lthumb -26.6495 54.538
rfemur -104.771 -22.2876 37.8902
rtibia 70.3043
rfoot -19.0715 -10.3044
rtoes -16.6856
lfemur -103.115 -2.81601 -30.3973
ltibia 56.8727
lfoot -4.92289 -22.9129
ltoes 8.59247
